<?xml version="1.0"?>
<svg xmlns:rdf="http://www.w3.org/1999/02/22-rdf-syntax-ns#" xmlns="http://www.w3.org/2000/svg" xmlns:cc="http://creativecommons.org/ns#" xmlns:dc="http://purl.org/dc/elements/1.1/" xmlns:svg="http://www.w3.org/2000/svg" id="Layer_1" xml:space="preserve" viewBox="0 0 125 125" version="1.1">
<g id="g3" transform="translate(-235.14 -358.55)" fill-rule="evenodd">
	<radialGradient id="SVGID_1_" gradientUnits="userSpaceOnUse" cy="402.59" cx="279.17" r="90.543">
		<stop id="stop6" stop-color="#f9a464" offset="0"/>
		<stop id="stop8" stop-color="#f15a22" offset=".57"/>
		<stop id="stop10" stop-color="#8a330c" offset="1"/>
	</radialGradient>
	<circle id="circle12" cy="421.05" cx="297.64" r="61.56" fill="url(#SVGID_1_)"/>
	<radialGradient id="SVGID_2_" gradientUnits="userSpaceOnUse" cy="402.68" cx="279.18" r="110.87">
		<stop id="stop15" stop-color="#9d3c13" offset="0"/>
		<stop id="stop17" stop-color="#670100" offset="1"/>
	</radialGradient>
	<path id="path19" d="m331.69 369.76c1.437 0.956 2.831 1.969 4.18 3.039-6.675-1.777-13.687-2.726-20.921-2.726-7.276 0-14.328 0.959-21.038 2.757 1.956 2.071 4.185 3.901 6.656 5.555 5.758 3.851 12.861 6.762 20.914 9.525 9.234 3.168 19.847 10 28.453 21.583 3.42 4.602 6.523 9.956 9.098 16.128-0.105 1.443-0.264 2.871-0.468 4.285-2.745-7.524-6.271-13.896-10.231-19.226-8.333-11.214-18.586-17.822-27.5-20.88-8.187-2.809-15.432-5.784-21.375-9.759-2.895-1.936-5.475-4.106-7.697-6.604-4.483 1.336-8.804 3.049-12.925 5.102 17.5 23.141 35.479 54.093 49.517 95.875-0.585 0.337-1.178 0.662-1.774 0.98-14.031-41.878-32.041-72.832-49.548-95.927-4.058 2.151-7.911 4.635-11.523 7.418 5.987 9.156 4.827 18.257 3.375 29.65-0.227 1.783-0.463 3.626-0.695 5.708l-0.008 0.075c-1.58 14.124-4.242 37.962 15.669 58.739-1.199-0.275-2.384-0.587-3.556-0.931-18.25-20.872-15.659-44.076-14.098-58.027l0.008-0.075c0.209-1.869 0.46-3.836 0.703-5.739 1.391-10.91 2.502-19.638-2.972-28.156-2.206 1.787-4.315 3.688-6.321 5.693-9.83 9.831-17.147 22.173-20.908 35.983-0.243-1.703-0.415-3.43-0.516-5.174 4.133-12.274 11.053-23.267 20.01-32.224 2.089-2.088 4.288-4.066 6.588-5.923-3.31-4.33-7.337-5.996-11.062-6.432 0.534-0.598 1.08-1.186 1.637-1.762 3.773 0.722 7.708 2.668 10.994 6.958 3.594-2.762 7.419-5.238 11.443-7.391-2.826-3.675-5.637-7.146-8.413-10.427 0.592-0.335 1.19-0.66 1.794-0.976 2.78 3.294 5.594 6.778 8.422 10.465 4.076-2.054 8.343-3.783 12.768-5.151-1.773-2.27-3.277-4.796-4.482-7.639-0.478-1.126-0.881-2.213-1.218-3.266 0.654-0.141 1.311-0.273 1.973-0.393 0.303 0.933 0.661 1.893 1.082 2.886 1.242 2.93 2.825 5.506 4.714 7.802 7.16-2.011 14.709-3.086 22.511-3.086 5.733 0.001 11.331 0.582 16.74 1.688z" fill="url(#SVGID_2_)"/>
</g>
<metadata><rdf:RDF><cc:Work><dc:format>image/svg+xml</dc:format><dc:type rdf:resource="http://purl.org/dc/dcmitype/StillImage"/><cc:license rdf:resource="http://creativecommons.org/licenses/publicdomain/"/><dc:publisher><cc:Agent rdf:about="http://openclipart.org/"><dc:title>Openclipart</dc:title></cc:Agent></dc:publisher><dc:title>Basketball</dc:title><dc:date>2013-10-11T10:16:42</dc:date><dc:description>Traditional eight-panel basketball, a spherical inflated ball used in the game of basketball.</dc:description><dc:source>http://openclipart.org/detail/184778/basketball-by-sprint-184778</dc:source><dc:creator><cc:Agent><dc:title>sprint</dc:title></cc:Agent></dc:creator><dc:subject><rdf:Bag><rdf:li>ball</rdf:li><rdf:li>basketball</rdf:li><rdf:li>orange</rdf:li><rdf:li>sport</rdf:li></rdf:Bag></dc:subject></cc:Work><cc:License rdf:about="http://creativecommons.org/licenses/publicdomain/"><cc:permits rdf:resource="http://creativecommons.org/ns#Reproduction"/><cc:permits rdf:resource="http://creativecommons.org/ns#Distribution"/><cc:permits rdf:resource="http://creativecommons.org/ns#DerivativeWorks"/></cc:License></rdf:RDF></metadata></svg>
