<?xml version="1.0"?>
<svg xmlns:rdf="http://www.w3.org/1999/02/22-rdf-syntax-ns#" xmlns="http://www.w3.org/2000/svg" xmlns:cc="http://web.resource.org/cc/" xmlns:xlink="http://www.w3.org/1999/xlink" xmlns:dc="http://purl.org/dc/elements/1.1/" xmlns:svg="http://www.w3.org/2000/svg" space="preserve" viewBox="0 0 357.588 347.967" enable-background="new 0 0 357.588 347.967" overflow="visible">
  <g id="Layer_1">
    <g clip-rule="evenodd" fill-rule="evenodd">
      <path d="m0.732 173.92c0 96.05 79.885 173.92 178.43 173.92s178.43-77.865 178.43-173.92-79.89-173.92-178.43-173.92-178.43 77.865-178.43 173.92z" fill="#F0EBE6"/>
      <path d="m194.52 4.244c-4.173 3.637 16.975 18.187 16.909 26.471-0.472 7.88-12.868 13.539-17.987 21.689-5.116 8.083-0.604 15.627-12.19 27.01-11.989 11.248-39.808 24.045-57.725 40.211-17.917 16.099-33.207 42.705-48.698 55.636-15.762 12.597-35.43 11.047-44.456 20.073-9.093 8.891-10.979 19.332-9.564 33.409 1.077 13.943 4.513 34.554 17.311 49.912 12.797 15.223 29.569 38.797 59.408 40.549 29.907 1.144 83.321-5.188 118.68-32.264 35.161-27.55 73.824-95.647 91.065-129.73 16.839-34.15 12.125-54.491 10.039-73.015-2.563-18.389-14.146-26.875-23.308-37.113-9.158-10.441-21.419-18.659-31.052-24.922-9.698-6.333-15.56-9.902-26.943-12.799-11.71-3.164-37.31-8.687-41.48-5.117z" fill="#E1DDD8"/>
      <path d="m258.57 23.306c-3.569 2.964 5.997 16.637 4.243 28.021-2.222 11.383-9.699 25.394-15.896 39.202-6.129 13.405-8.35 30.715-20.676 41.29-12.663 10.305-44.254 8.891-54.493 20.678-10.305 11.519 7.746 39.876-7.409 48.699-15.693 8.621-64.729-3.906-84.196 3.165-19.466 7.005-25.393 25.865-31.254 38.663-5.928 12.596-7.409 25.192-3.166 37.048 4.379 11.72 16.166 24.517 28.357 33.207 11.989 8.352 30.242 13.537 43.109 17.646 12.595 3.975 15.895 8.149 32.802 6.331 16.975-1.886 47.957-3.367 67.76-17.984 19.266-15.356 30.919-49.912 48.229-71.466 17.312-21.621 44.32-31.859 55.031-56.175 10.101-24.72 8.42-67.625 7.407-89.449-1.078-21.824-5.456-28.896-12.863-40.212-7.747-11.451-21.557-21.42-31.256-27.819-9.69-6.812-22.15-13.548-25.72-10.853z" fill="#D8D4CF"/>
      <path d="m344.59 110.26c-2.964-9.093-3.64-13.742-8.556-20.14-5.32-6.533-16.773-20.544-21.889-17.581-5.119 3.032-3.976 17.177-8.489 35.969-4.85 18.86-10.776 59.005-19.602 75.709-9.228 16.232-23.71 12.73-33.339 22.228-9.633 9.362-9.432 25.191-23.308 33.949-14.146 8.487-42.569 6.062-59.813 17.446-17.446 11.383-28.356 40.277-43.378 50.314-15.357 9.699-48.564 2.089-46.611 8.083 2.29 5.726 35.43 22.16 59.409 26.942 23.979 4.647 56.042 7.679 82.916 1.281 26.607-6.67 54.425-21.285 75.642-40.213 21.017-19.331 39.876-45.938 49.574-73.084 9.162-27.144 6.87-67.827 6.399-88.035-0.47-20.28-6.12-24.05-8.95-32.88z" fill="#D0CCC8"/>
      <path d="m113.82 333.35c0.876 1.818 40.684 10.372 61.497 11.115 20.745 0.336 41.896-0.877 62.441-8.556 20.34-7.88 46.406-28.021 58.938-37.854 12.256-9.902 24.11-24.316 14.817-21.15-9.834 3.167-47.89 30.512-71.604 40.213-23.708 9.43-48.091 14.212-69.24 16.974-21.22 2.64-57.66-2.55-56.86-0.73z" fill="#B1A59C"/>
      <path d="m91.866 92.212c-0.471-0.27-2.492-0.404-3.974-0.673-1.684-0.606-3.772-1.347-5.456-1.954-1.886-0.673-3.57-1.548-5.322-1.616-1.818-0.27-3.771 0.471-5.32 0.134-1.684-0.472-2.963-2.156-4.647-2.425-1.953-0.606-4.513 0-6.399-0.27-1.818-0.404-3.502-1.011-4.782-1.011-1.348-0.134-1.953 0.809-3.368 1.011-1.684 0-4.512-0.741-6.129-0.404-1.684 0.134-2.694 0.54-4.108 1.212-1.684 0.404-4.917 0.943-5.321 1.348-0.404 0.336 1.146 0.134 2.56 0.134 1.28-0.472 2.829-1.347 4.647-1.616 1.28-0.202 2.83-0.068 4.647 0.134 1.954-0.067 4.918-0.067 6.534 0 1.145-0.202 0.337-0.471 1.212-0.539 0.673-0.068 1.819 0.203 3.435 0.539 1.482 0.068 4.042 0 6.129 0.54 2.021 0.336 3.975 2.155 5.861 2.56 1.616 0.268 2.828-0.607 4.647-0.27 1.617 0.134 3.906 1.481 5.59 1.953 1.482 0.404 2.896 0.472 4.243 0.943 1.212 0.337 2.426 0.875 3.369 1.078 0.807-0.203 2.154-0.472 1.952-0.808z" fill="#A52914"/>
      <path d="m28.012 94.502c-0.067-0.135-2.627 2.02-3.772 3.569-1.212 0.943-2.021 2.156-3.165 3.638-1.416 1.548-3.234 3.839-4.379 5.321-1.078 1.348-2.761 3.099-2.156 2.896 0.27-0.472 3.032-3.234 4.647-4.917 1.55-1.752 2.762-3.435 4.379-5.052 1.347-1.886 4.311-5.186 4.446-5.456z" fill="#A52914"/>
      <path d="m10.162 131.62c0.404-0.606 0-6.197-0.404-7.679-0.269-1.751-1.145-2.29-1.347-2.156-0.404 0.135-0.876 1.818-1.146 2.963-0.472 0.876-2.223 1.146-1.616 2.358 0.472 1.28 3.705 4.78 4.513 4.52z" fill="#E2391C"/>
      <path d="m7.266 140.37c-0.067-1.347-0.943-4.244-1.347-5.052-0.741-1.01-1.415-1.617-1.751-0.808-0.202 0.606-0.337 2.761 0.134 4.377 0.203 1.28 1.011 3.638 1.618 3.975 0.403-0.06 1.279-1.07 1.346-2.49z" fill="#E2391C"/>
      <path d="m4.167 154.85c0.134-1.28 0-2.963-0.134-3.975-0.405-1.212-1.617-2.761-2.089-2.56-0.606 0.136-1.212 1.819-0.808 3.503 0.405 1.617 2.021 5.523 2.762 6.264 0.269 0.28 0.269-2.01 0.269-3.23z" fill="#CF341A"/>
      <path d="m2.82 168.12c0.203-0.605-0.404-4.31-0.741-5.388-0.673-1.077-1.212-1.414-1.616-1.01-0.404 0.27-0.741 2.358-0.27 3.435 0.203 0.94 2.291 3.23 2.627 2.96z" fill="#CF341A"/>
      <path d="m2.214 175.8c-0.539-0.067-1.683 3.435-1.886 4.783-0.134 1.009 0.27 2.087 0.944 2.154 0.404 0 1.28-0.672 1.548-1.75 0.136-1.27-0.336-5.18-0.606-5.18z" fill="#CF341A"/>
      <path d="m2.956 192.64c-0.337 0.136-1.886 2.357-1.819 3.773-0.202 1.144 0.673 3.165 1.078 3.165 0.202-0.336 0.809-2.425 1.011-3.704 0.2-1.22-0.136-3.51-0.27-3.24z" fill="#CF341A"/>
      <path d="m85.872 92.481c-1.684 2.626-7.342 10.373-9.7 14.145-2.424 3.502-3.367 6.802-4.108 7.274-0.876 0.337-0.876-3.907-1.078-5.187-0.472-1.481-2.087-1.684-0.943-3.704 0.943-2.29 4.917-7.208 7.477-9.564 2.492-2.762 5.792-4.109 7.341-4.783 1.212-0.741 2.424-0.741 1.011 1.818z" fill="#F13D2F"/>
      <path d="m59.265 110.06c1.078-1.414 4.513-8.352 6.4-11.451 1.751-2.963 3.435-4.445 4.782-5.994 1.212-1.684 4.176-4.177 3.435-4.109-0.943-0.202-5.658 2.021-7.947 3.839-2.358 1.819-4.917 4.783-6.13 7.073-1.415 2.021-1.818 3.704-1.752 5.59-0.27 1.62-0.135 6.06 1.212 5.05z" fill="#F13D2F"/>
      <path d="m49.97 107.3c1.011-1.751 3.099-8.554 5.187-12.125 1.819-3.57 5.726-7.814 6.534-9.093 0.539-1.549-1.01-0.472-2.56 0.674-1.885 1.078-4.849 3.502-6.803 5.725-1.818 2.021-3.435 4.715-3.839 6.803-0.673 1.819-0.067 3.638 0.27 4.917 0.133 1.21-0.069 4.58 1.211 3.1z" fill="#F13D2F"/>
      <path d="m41.146 106.36c1.077-0.674 3.771-7.949 5.456-10.643 1.751-2.897 2.964-5.254 4.176-6.804 0.943-1.751 1.415-2.829 1.145-2.964-0.673-0.202-2.357 0.337-3.974 1.887-1.684 1.684-4.244 4.647-5.59 7.072-1.684 1.819-2.56 3.031-2.896 4.917-0.203 1.955 0.268 7.075 1.683 6.535z" fill="#F13D2F"/>
      <path d="m34.343 106.63c0.472-1.078 0.876-4.917 1.482-7.342 0.539-2.155 1.347-4.378 2.694-6.399 1.28-2.492 4.917-6.668 5.187-7.341 0.135-0.741-2.694 1.549-4.108 2.963-1.684 1.212-3.57 2.762-4.849 4.647-1.348 1.886-2.695 3.974-3.032 5.995-0.539 1.683-0.27 3.233 0.27 4.647 0.269 1.08 1.75 3.57 2.356 2.83z" fill="#F13D2F"/>
      <path d="m34.343 89.989c-0.337 0.606-2.829 2.694-3.839 5.186-1.146 2.425-2.021 6.265-2.627 8.892-0.741 2.223-0.875 5.119-1.212 5.59-0.472 0.472-0.741-1.212-1.078-2.492-0.538-1.482-1.01-3.772-0.673-5.861 0.27-2.223 2.358-5.186 3.435-6.802 1.078-1.751 2.021-2.694 3.099-3.369 0.942-0.813 3.031-1.891 2.895-1.15z" fill="#F13D2F"/>
      <path d="m20.4 117c-0.673-1.146-2.087-5.052-1.885-7.342 0.134-2.559 2.424-6.466 3.233-7.342 0.673-0.875 1.616-0.134 1.55 1.482-0.27 1.347-1.954 4.311-2.223 6.534-0.202 2.021 0.201 4.58 0.403 5.86-0.269 0.94-0.539 1.82-1.078 0.81z" fill="#F13D2F"/>
      <path d="m14.406 123.13c0.067-1.145-1.279-3.975-1.145-6.399 0.201-2.626 1.886-7.207 1.953-8.016-0.202-0.943-2.29 1.819-2.896 3.099-0.673 1.01-1.549 2.291-1.347 4.108-0.135 1.819 0.538 5.388 1.212 6.803 0.404 1.22 2.02 1.35 2.223 0.41z" fill="#F13D2F"/>
      <path d="m51.923 85.409c-1.078-0.539-1.684-1.684-1.818-3.705-0.539-2.021-1.146-5.051 0-8.083 1.145-3.301 5.724-9.901 7.274-10.979 1.348-1.28 1.28 1.482 1.078 3.908-0.472 2.289-2.694 7.004-3.032 9.968-0.606 2.963 1.348 5.726 0.674 7.477-0.942 1.414-3.03 1.615-4.176 1.414z" fill="#F13D2F"/>
      <path d="m62.971 86.217c-0.607-1.414-1.078-6.466-1.146-8.891-0.336-2.425-0.067-4.513 0.539-6.265 0.673-2.088 1.819-4.041 3.705-5.59 1.819-1.617 6.332-4.244 6.804-3.435 0.202 0.673-4.177 4.445-5.322 7.679-1.348 3.166-1.886 7.881-2.155 10.776-0.405 2.425-0.202 3.975-0.405 4.917-0.539 1.011-1.483 1.887-2.02 0.809z" fill="#F13D2F"/>
      <path d="m73.006 88.238c-0.673-2.021-0.809-7.881-0.404-11.047 0.404-3.3 1.145-5.522 2.493-7.745 1.077-2.358 4.176-5.995 4.917-5.726 0.539 0.202-0.741 2.425-1.01 6.399-0.472 3.772-0.54 12.731-0.943 15.964-0.405 2.829-0.809 2.021-1.482 2.29-1.011 0.134-2.898 1.818-3.571-0.135z" fill="#F13D2F"/>
      <path d="m85.332 91.403c-1.145-2.155-1.077-6.265-0.605-10.238 0.336-3.907 1.684-10.777 3.03-12.798 1.28-2.087 3.908-1.751 4.513 0 0.405 1.618-1.549 5.456-1.684 8.959-0.27 3.233 0.067 8.083 0.269 10.643 0.068 2.29 0.674 3.435 0 3.974-1.144 0.471-4.445 1.144-5.523-0.54z" fill="#F13D2F"/>
      <path d="m46.467 85.544c0.405-0.472-0.539-1.28-0.269-3.705 0.067-2.627 1.819-9.901 1.617-11.72-0.337-2.223-2.291-1.751-3.031-0.404-0.943 1.145-1.886 5.59-2.021 8.15-0.404 2.425-0.27 5.388 0.404 6.803 0.539 1.279 2.761 1.145 3.3 0.876z" fill="#F13D2F"/>
      <path d="m37.711 87.295c0.269-1.078-0.876-2.358-0.808-4.379-0.068-2.425 1.414-7.274 1.077-8.284-0.336-0.943-2.761 1.212-3.368 2.83-0.943 1.481-1.414 4.041-1.414 6.129 0 1.885 0.336 4.31 1.28 5.186 0.741 0.471 2.694-0.539 3.233-1.482z" fill="#F13D2F"/>
      <path d="m30.504 91.539c0.27-1.415-0.876-3.436-0.809-5.052 0.068-1.751 0.673-4.513 0.27-4.917-0.808-0.404-3.301 1.212-4.109 2.021-0.742 0.471-1.01 0.269-0.808 1.481-0.135 1.077-0.135 3.772 0.27 5.456 0.404 1.415 1.212 3.435 2.155 3.705 0.875 0 2.492-1.416 3.031-2.694z" fill="#F13D2F"/>
      <path d="m22.758 100.09c0.068-0.809-1.01-2.357-1.145-4.108-0.135-1.617 0.741-5.052 0.538-5.591-0.472-0.673-1.548 0.673-2.155 1.415-0.606 0.404-1.145 0.336-1.078 1.616-0.202 1.01 0.067 4.513 0.808 5.59 0.472 1.148 2.695 1.418 3.032 1.078z" fill="#F13D2F"/>
      <path d="m17.706 105.68c0.203-0.742-0.875-1.55-1.145-2.156-0.27-0.875 0.201-2.963-0.134-2.896-0.473 0-2.156 1.481-2.426 2.626-0.54 0.675-0.54 1.482-0.27 2.426 0.067 0.943 0.203 2.964 0.943 3.166 0.675-0.2 2.56-2.22 3.032-3.17z" fill="#F13D2F"/>
      <path d="m95.503 94.367c1.684-0.068 3.503 0.067 5.187 0.135 1.684-0.135 3.57 0 4.917 0.404 1.01 0.471 0.809 1.28 2.223 2.155 1.416 0.606 3.098 1.078 5.792 1.685-0.134-0.068 0.404 0.066 1.616-0.136 1.011-0.134 4.918-0.875 4.984-0.673-0.066 0-3.502 1.414-4.849 1.616-1.481 0.068-3.031-0.404-4.377-0.673-1.55-0.404-3.57-0.943-4.514-1.348-1.078-0.673-0.942-1.482-1.953-1.684-1.146-0.27-3.908 0.337-5.187 0.27-1.55-0.201-2.829-0.875-3.84-1.751z" fill="#A52914"/>
      <path d="m140.43 101.24c0.337-0.27 4.312 0.876 6.198 1.078 1.616 0 2.29-0.404 4.107-0.404 1.887-0.202 4.177-0.808 6.332-0.539 1.818 0.202 2.425 1.348 4.917 1.885 2.492 0.405 9.025 0.741 9.497 1.011 0.135 0.27-6.197 0.539-8.352 0.539-2.224-0.404-3.368-1.751-5.254-1.953-2.29-0.202-5.726 0.809-7.948 0.943-2.29 0-4.042-0.134-5.523-0.404-1.56-0.55-4.53-1.96-3.99-2.16z" fill="#A52914"/>
      <path d="m98.938 94.435c-0.673-2.021-0.807-7.88-0.403-11.046 0.269-3.301 1.078-5.523 2.424-7.747 1.078-2.357 4.176-5.995 4.917-5.725 0.471 0.202-0.539 2.424-0.943 6.398-0.403 3.772-0.741 12.731-1.01 15.964-0.403 2.828-0.808 2.02-1.481 2.289-0.88 0.136-2.905 1.82-3.512-0.133z" fill="#F13D2F"/>
      <path d="m115.78 98.409c-1.346-1.953-2.021-5.995-2.021-10.037-0.269-3.974 0.203-10.844 1.146-13.067 0.943-2.357 3.636-2.223 4.445-0.673 0.54 1.28-0.539 5.793-0.337 9.16 0.27 3.368 1.146 7.813 1.818 10.441 0.337 2.223 1.213 3.3 0.54 3.974-1.09 0.539-4.26 1.813-5.6 0.202z" fill="#F13D2F"/>
      <path d="m134.1 101.64c-1.684-1.751-3.839-6.87-4.917-9.902-1.01-3.165-1.347-5.523-1.01-8.083 0.202-2.761 1.28-7.072 2.156-7.206 0.471-0.203 0.538 2.559 1.75 6.195 1.213 3.503 4.648 11.856 5.659 14.954 0.807 2.762 0.066 2.088-0.405 2.694-0.61 0.61-2.03 2.7-3.24 1.35z" fill="#F13D2F"/>
      <path d="m150.74 102.72c-1.145-0.809-0.067-2.492-1.211-5.052-1.482-2.829-4.985-8.218-6.063-10.71-1.01-2.762-0.876-4.378 0.134-4.849 0.674-0.674 2.964 0.066 4.783 1.953 1.886 1.819 4.781 6.87 6.331 9.43 1.28 2.357 1.885 3.974 2.089 5.388 0.202 1.348-0.27 2.357-1.146 3.031-1.14 0.74-3.9 1.28-4.91 0.81z" fill="#F13D2F"/>
      <path d="m85.266 116.53c1.077-1.416 4.512-8.354 6.399-11.451 1.751-2.964 3.435-4.445 4.781-5.995 1.212-1.684 4.176-4.176 3.435-4.108-0.943-0.202-5.658 2.021-7.947 3.839-2.358 1.819-4.917 4.783-6.13 7.073-1.414 2.02-1.818 3.705-1.751 5.59-0.27 1.61-0.135 6.06 1.213 5.05z" fill="#F13D2F"/>
      <path d="m104.19 120.77c1.079-1.751 3.503-8.555 5.726-12.124 2.155-3.57 6.265-7.814 7.14-9.094 0.606-1.55-1.211-0.472-2.829 0.674-1.818 1.077-5.523 3.501-7.477 5.724-1.954 2.021-3.705 4.715-4.176 6.804-0.539 1.819-0.27 3.637 0.269 4.917 0 1.21 0.28 4.58 1.35 3.1z" fill="#F13D2F"/>
      <path d="m134.3 102.65c-1.684 2.626-7.342 10.373-9.699 14.145-2.291 3.501-3.369 6.802-4.042 7.274-0.876 0.337-0.876-3.907-1.079-5.186-0.404-1.482-2.222-1.684-1.01-3.705 1.146-2.291 4.782-7.208 7.545-9.564 2.492-2.493 5.792-4.312 7.341-4.715 1.28-0.67 2.29-0.88 0.94 1.75z" fill="#F13D2F"/>
      <path d="m139.89 124.61c-1.079-0.943-1.684-2.829-1.28-5.388 0.471-2.493 1.751-6.736 3.301-9.093 1.077-2.56 2.762-5.119 4.041-6.13 1.28-1.212 2.56-0.942 3.571-0.472 0.808 0.27 1.954-0.539 1.347 2.762-1.011 3.166-4.851 13.202-6.602 16.368-1.89 2.96-3.44 2.49-4.38 1.95z" fill="#F13D2F"/>
      <path d="m159.09 122.93c-0.808-0.472-0.606-1.751 0.336-4.109 1.078-2.559 3.502-7.342 5.456-9.901 1.617-2.626 3.233-4.378 4.581-5.253 0.404-0.674-0.067-2.493-1.415-4.917-1.751-2.762-5.726-7.747-7.004-10.307-1.28-2.559-1.146-4.849 0.134-4.513 1.145 0.471 4.783 3.031 7.543 6.399 2.695 3.099 7.275 8.958 8.286 11.855 0.606 2.559-2.223 1.414-3.57 4.108-1.481 2.626-3.098 8.352-4.58 11.72-1.55 3.233-3.234 6.399-4.784 7.409-1.63 0.73-3.39-0.01-5-2.5z" fill="#F13D2F"/>
      <path d="m201.79 125.82c-0.809-0.336-0.809-1.684-0.271-4.311 0.606-2.762 2.291-8.285 3.771-11.115 1.349-2.964 2.36-5.052 3.774-6.264 0.201-0.876-0.541-2.492-2.226-4.85-2.086-2.492-6.936-7.208-8.552-9.497-1.549-2.627-2.09-4.783-0.605-4.648 1.345 0.136 5.115 2.426 8.484 5.322 3.1 2.694 8.621 8.149 10.104 10.912 1.009 2.56-1.954 1.751-2.897 4.85-1.144 3.031-1.616 9.16-2.693 12.932-1.144 3.57-2.087 7.072-3.57 8.42-1.4 1.07-3.35 0.4-5.31-1.76z" fill="#F13D2F"/>
      <path d="m191.02 105.55c-1.214-0.808-0.742-2.56-2.223-5.254-1.885-2.762-7.074-8.015-8.556-10.575-1.548-2.694-1.683-4.715-0.672-5.322 0.672-0.807 3.031-0.471 5.523 1.28 2.222 1.683 6.465 6.534 8.555 9.094 1.952 2.29 2.693 4.041 3.3 5.522 0.402 1.348 0.066 2.694-0.742 3.503-1.14 0.87-3.9 2.15-5.18 1.75z" fill="#F13D2F"/>
      <path d="m179.77 128.11c-1.212-0.876-1.751-3.166-1.347-5.792 0.336-2.896 2.021-6.938 3.504-9.767 1.345-2.896 2.894-5.388 4.378-6.466 1.549-1.146 2.558-1.078 3.771-0.54 0.808 0.27 2.222-0.471 1.414 2.964-1.279 3.435-4.918 14.011-7.005 17.446-2.02 3.11-3.77 2.7-4.71 2.16z" fill="#F13D2F"/>
      <path d="m222.74 106.56c0.07-0.403 2.427-1.145 3.705-1.481 1.349-0.539 2.563-1.28 4.379-1.414 1.75-0.337 3.771-0.337 6.063-0.27 2.087 0 3.504 0.471 6.332 0.134 2.628-0.673 7.006-2.56 9.766-2.828 2.827-0.337 5.927 1.279 6.197 1.482-0.066 0.066-4.378-1.28-6.465-0.674-2.361 0.606-4.783 3.099-7.275 3.839-2.628 0.27-5.727-0.606-7.747-0.808-2.357-0.27-2.493-0.741-4.78-0.134-2.36 0.404-6.739 3.03-8.42 3.435-1.95 0.13-2.02-0.81-1.75-1.28z" fill="#A52914"/>
      <path d="m221.26 126.43c-0.809-0.337-0.943-1.685-0.406-4.312 0.541-2.83 1.886-8.419 3.234-11.315 1.078-3.032 2.222-5.052 3.436-6.333-0.271-1.077-1.079-2.896-2.427-4.714-1.48-2.088-4.379-4.782-5.793-7.072-1.614-2.358-3.972-6.736-2.894-6.871 1.008-0.337 5.993 2.492 9.227 5.119 3.03 2.762 7.747 7.544 8.957 10.44 1.013 2.626-2.021 1.751-2.624 4.917-0.811 3.031-1.417 9.295-2.09 13.067-1.009 3.705-1.819 7.073-3.164 8.555-1.5 1.07-3.31 0.66-5.47-1.49z" fill="#E2391C"/>
      <path d="m245.71 102.85c-1.282-0.607-1.213-2.425-3.435-4.647-2.492-2.492-8.489-7.746-10.44-9.768-1.955-2.29-2.427-2.963-1.147-3.031 1.349-0.202 4.718 0.539 8.019 2.492 3.028 1.953 7.878 6.602 9.898 9.026 1.619 2.021 1.619 3.502 1.078 4.445-0.68 0.74-2.7 2.09-3.98 1.48z" fill="#E2391C"/>
      <path d="m242.95 124.74c-0.404-0.875 0.606-3.637 0.673-6.465-0.402-3.167-2.287-8.958-2.021-11.114 0.135-2.088 1.885-2.358 3.168-1.549 1.346 0.606 3.5 2.492 4.108 5.658 0.27 2.896-1.214 9.7-2.087 12.057-1.15 2.21-3.31 2.08-3.84 1.4z" fill="#E2391C"/>
      <path d="m259.72 122.39c-0.738-1.482 1.483-6.467 1.483-9.768-0.135-3.368-2.021-8.352-1.751-10.036 0.066-1.684 1.686-1.819 2.76-0.404 1.013 1.145 2.021 4.311 2.763 7.409 0.471 2.963 1.348 8.217 0.541 10.574-0.94 2.23-5.12 3.24-5.79 2.23z" fill="#E2391C"/>
      <path d="m263.29 103.39c0.541-0.673 1.754-2.561 1.819-4.379-0.135-1.751 1.349-3.771-1.819-6.331-3.501-3.032-14.684-9.295-17.442-10.44-2.763-0.943-0.405 1.953 1.615 4.243 1.819 2.155 7.879 5.187 10.17 8.016 2.156 2.357 2.087 5.726 3.165 7.274 0.81 1.42 1.82 1.96 2.49 1.62z" fill="#E2391C"/>
      <path d="m275.48 117.94c-0.742-0.067-1.147-1.414-1.213-3.772-0.136-2.559 0.336-8.082 0.873-10.844 0.472-2.896 1.012-5.119 1.89-6.398-0.476-1.146-1.484-2.425-3.033-3.84-1.819-1.616-4.784-3.569-6.534-5.32-1.815-2.021-4.849-5.12-3.907-5.658 0.943-0.472 5.862 0.942 9.297 2.963 3.231 1.954 8.486 5.321 10.035 7.745 1.414 2.021-1.414 1.955-1.479 4.985-0.069 2.897 0.267 8.42 0.471 12.125-0.135 3.368-0.271 6.937-1.213 8.353-1.09 1.35-2.91 1.14-5.2-0.34z" fill="#CF341A"/>
      <path d="m278.85 29.638c0.406-0.405 3.706 0.202 5.186 1.279 1.013 0.808 1.82 3.301 1.685 3.84-0.471 0.403-1.685-0.674-2.894-1.415-1.29-1.145-4.18-3.233-3.98-3.704z" fill="#A52914"/>
      <path d="m288.89 36.777c1.546 0.135 3.3 0.336 4.51 0.875 1.282 0.337 2.561 1.011 3.304 1.751 0.536 0.539 0.672 1.28 0.134 1.954 1.48-0.54 2.625-0.27 3.703 0.539 0.942 0.809 1.549 2.358 2.09 4.647 0.737 0.203 1.75 0.675 3.029 1.685 1.214 1.009 3.841 3.3 3.977 3.974-0.069 0.269-2.964-0.742-4.246-1.483-1.55-0.741-2.693-1.751-4.174-3.03-0.472-1.212-1.483-2.089-2.292-2.897-1.144-0.808-2.087-1.549-3.57-1.954-0.404-1.01-1.144-1.886-1.684-2.357-0.673-0.539-1.414-0.471-2.223-0.809-0.81-0.672-1.76-1.548-2.56-2.895z" fill="#A52914"/>
      <path d="m301.14 52.741c1.954 0 3.84 0.269 5.927 1.078 2.091 0.605 4.583 1.481 6.469 3.166 1.549 1.684 2.828 3.57 3.57 6.466-3.1-1.684-5.862-3.502-8.556-5.186-2.82-1.887-5.05-3.638-7.41-5.524z" fill="#A52914"/>
      <path d="m318.59 68.705c0.941 1.28 1.954 2.694 3.3 4.244 1.146 1.549 2.627 3.166 4.177 5.119 0.606-1.482 0.404-3.301-0.877-4.715-1.21-1.617-3.5-3.167-6.6-4.648z" fill="#A52914"/>
      <path d="m316.84 70.186c-0.136-2.56-1.078-4.311-3.571-5.995-2.558-1.751-5.927-2.694-10.845-3.569 0.941 1.212 2.225 2.626 3.57 3.704 1.213 1.146 3.368 2.156 4.647 3.031 1.013 0.405 1.886 0.405 2.898 0.809 1.08 0.403 2.09 1.078 3.3 2.02z" fill="#A52914"/>
      <path d="m327.55 84.062c-0.541-1.146-3.64-4.917-4.919-6.399-1.55-1.617-4.243-3.436-3.705-2.358 0.471 0.943 4.849 6.804 6.398 8.487 1.28 1.28 2.63 1.28 2.23 0.27z" fill="#A52914"/>
      <path d="m315.42 76.248c-0.471 0.27-2.763-2.963-5.591-4.512-2.963-1.886-10.506-4.244-11.72-5.254-1.348-1.145 1.48-1.01 3.301-0.674 1.75 0.203 4.915 1.819 6.87 2.492 1.479 0.606 2.356-0.067 3.436 1.348 1.21 1.347 3.84 6.061 3.7 6.6z" fill="#A52914"/>
      <path d="m326.07 97.87c0.672 0-1.415-6.938-2.628-9.632-1.479-2.694-4.107-4.581-5.521-5.927-1.619-1.414-2.357-2.155-3.3-2.223-1.013-0.202-1.685 1.819-2.291 1.684-0.673-0.27-0.673-1.886-1.55-3.031-1.144-1.482-2.087-3.637-4.919-4.917-3.095-1.415-11.515-3.435-12.798-3.233-1.413 0.068 2.697 1.28 5.321 3.369 2.492 1.885 8.354 5.792 10.038 7.813 1.279 1.819-1.549 2.357-1.213 3.705 0.336 1.078 1.955 2.155 3.57 4.244 1.278 2.223 4.243 6.062 5.255 8.689 0.808 2.492 0.336 6.062 0.672 5.792 0.136-0.674 2.087-4.984 1.214-8.285-1.147-3.3-6.133-8.958-6.87-10.979-0.877-2.087 0.942-2.291 2.356-1.684 1.414 0 3.165 1.415 5.522 3.705 2.15 2.359 6.26 10.576 7.14 10.913z" fill="#A52914"/>
      <path d="m285.25 77.056c0.336-0.673 5.39-1.078 8.624 0.607 3.165 1.481 8.552 5.86 10.17 8.218 1.415 1.953-2.291 2.491-1.75 4.512 0.336 1.953 3.096 4.446 4.106 7.477 0.742 2.83 1.616 9.632 1.079 9.767-0.677-0.067-2.829-6.736-4.379-9.094-1.818-2.559-4.177-4.108-4.717-5.658-0.537-1.886 3.233-2.828 2.226-4.647-1.214-2.088-6.198-4.849-8.756-6.736-2.76-2.024-6.87-3.842-6.6-4.449z" fill="#C03018"/>
      <path d="m274.07 80.357c-0.068 1.145 12.122 9.565 14.75 12.259 2.156 2.627-0.271 1.683 0 3.165 0.336 1.146 0.742 1.146 1.75 4.379 0.877 3.233 2.427 13.74 3.57 14.886 1.078 0.807 2.427-5.995 2.492-9.229-0.336-3.637-3.3-8.419-3.705-10.71-0.472-2.356 2.09-1.28 1.483-2.762-0.672-1.684-2.087-4.445-5.321-6.465-3.5-2.158-15.08-6.672-15.01-5.526z" fill="#C03018"/>
      <path d="m49.095 291.86c-0.473 0.202 0.269 3.233 1.415 4.715 0.875 1.28 3.301 2.359 3.906 2.492 0.472-0.133 0.27-2.021-0.605-3.097-1.011-1.42-4.312-4.18-4.716-4.11z" fill="#C03018"/>
      <path d="m62.431 305.19c-0.336 0.068 0.808 2.289 1.616 3.031 0.606 0.672 1.415 1.347 1.887 1.279 0.404-0.403 0.538-1.414 0.134-2.222-0.875-0.81-3.3-2.36-3.637-2.09z" fill="#C03018"/>
      <path d="m75.97 317.52c-0.269-1.011-0.337-1.817-0.471-2.694-0.135-0.943-0.135-1.684 0-2.491l-3.435-0.809c0.605 1.752 1.28 3.031 2.021 4.108 0.672 1.01 1.211 1.54 1.885 1.88z" fill="#C03018"/>
      <path d="m84.188 322.03c-0.27-0.943-0.337-1.818-0.471-2.628-0.135-1.01-0.135-1.617 0-2.56l-3.502-0.74c0.605 1.683 1.28 3.031 2.021 4.042s1.143 1.56 1.952 1.89z" fill="#C03018"/>
      <path d="m94.493 328.5c-0.27-1.414-0.673-2.627-0.673-3.906-0.134-1.281-0.134-2.627 0-3.772l-3.975-0.809c0.472 2.29 1.01 4.378 1.886 5.725 0.674 1.48 1.685 2.22 2.762 2.76z" fill="#C03018"/>
      <path d="m105.34 332.41c-0.404-1.549-0.673-3.167-0.807-4.58-0.135-1.55-0.135-2.896 0-4.311l-4.649-1.011c0.473 2.762 1.213 4.984 2.224 6.67 0.81 1.61 1.89 2.69 3.24 3.23z" fill="#C03018"/>
      <path d="m116.18 335.3c-1.415-0.201-2.426-0.808-3.57-2.357-1.212-1.752-3.232-6.13-2.964-6.669 0.203-0.539 2.493 1.819 3.974 3.436 1.079 1.348 2.83 3.908 3.435 4.851 0.54 0.74 0.54 0.74 0 0 1.079 0.605 2.155 1.278 2.964 2.021 0.673 0.605 2.357 1.414 2.222 1.887-0.27 0.336-2.356 0.942-3.367 0.538-0.94-0.47-2.01-1.89-2.69-3.71z" fill="#C03018"/>
      <path d="m130.06 338.6c-1.617-0.065-3.167-1.008-4.379-2.828-1.616-1.954-3.569-7.61-3.502-8.149 0.27-0.675 3.167 2.289 4.782 4.243 1.415 1.616 3.301 4.781 4.11 5.859 0.673 0.942 0.673 0.942 0 0 1.346 0.875 2.559 1.414 3.637 2.356 1.145 0.742 2.627 1.686 2.627 2.292-0.472 0.606-2.763 1.01-4.042 0.672-1.22-0.73-2.3-2.21-3.24-4.44z" fill="#C03018"/>
      <path d="m143.86 338.67c-2.088 0.675-3.973-0.2-6.196-2.625-2.425-2.493-6.87-11.384-6.803-12.126 0.135-0.875 4.984 4.445 7.544 6.87 2.357 2.225 5.254 5.256 6.601 6.535 1.079 1.077 1.079 1.077 0 0 2.021 0.673 3.503 1.414 5.187 2.223 1.481 0.673 3.907 1.548 3.907 2.357-0.204 0.74-3.436 2.021-4.985 1.75-1.82-0.67-3.57-2.15-5.26-4.98z" fill="#C03018"/>
      <path d="m150.67 333.21c-3.435-1.144-5.658-2.693-7.207-5.185-1.617-2.695-2.29-8.623-1.751-9.431 0.404-0.81 3.3 2.223 5.052 4.714 1.617 2.425 3.435 5.256 5.186 9.297 7.813 2.693 11.855 4.511 12.865 5.456 0.741 0.673-5.456 0.336-7.679 0-2.222-0.271-4.715-0.877-5.657-1.55-1.15-0.74-1.42-2.01-0.81-3.3z" fill="#C03018"/>
      <path d="m162.93 327.09l1.415-1.886c-1.683-1.077-2.963-2.358-4.377-4.581-1.617-2.223-2.628-7.679-3.773-8.284-1.078-0.877-2.425 2.154-2.492 3.906-0.27 1.616 0.201 3.637 1.414 5.793 1.213 2.089 3.1 4.109 5.928 6.33-1.28 1.214-1.617 2.156-0.742 3.1 0.606 0.74 2.493 1.683 5.659 2.088 2.963 0.337 7.207 0.473 12.73 0.134-4.514-1.011-8.083-1.817-10.71-2.963-2.63-1.15-4.31-2.37-5.05-3.64z" fill="#C03018"/>
      <path d="m178.15 321.23l1.685-1.819c-1.685-1.212-3.099-2.896-4.244-5.321-1.212-2.559-2.358-8.283-3.165-9.16-1.146-0.943-2.762 2.088-3.031 3.908-0.539 1.547-0.135 3.906 0.942 6.264 1.01 2.156 2.896 4.579 5.658 7.272-1.55 1.146-2.021 2.225-1.145 3.235 0.673 0.808 2.425 2.087 5.792 2.76 3.167 0.606 7.681 1.079 13.539 1.415-4.849-1.481-8.284-2.896-11.047-4.243-2.83-1.35-4.25-3.04-4.99-4.31z" fill="#C03018"/>
      <path d="m191.15 314.49l1.414-2.088c-1.75-0.875-3.3-2.425-4.918-4.647-1.615-2.291-3.435-8.016-4.443-8.622-1.348-0.739-2.426 2.425-2.493 4.311-0.27 1.752 0.336 3.772 1.817 6.063 1.413 2.021 3.569 4.244 6.738 6.398-1.282 1.281-1.684 2.493-0.675 3.368 0.742 0.809 2.762 1.616 6.062 1.888 3.235 0.066 7.748 0.133 13.54-0.54-4.784-0.674-8.69-1.616-11.449-2.56-2.84-1.01-4.79-2.29-5.6-3.57z" fill="#C03018"/>
      <path d="m203.81 305.4c0.808 1.281 4.313 0.406 5.05-2.087 0.541-2.896-0.942-9.834-1.614-12.731-0.878-2.761-2.965-4.04-3.436-3.3-0.606 0.606-0.673 3.839-0.471 7.073-0.2 2.96-0.4 9.43 0.47 11.05z" fill="#C03018"/>
      <path d="m206.17 307.75c0.136 0.404 0 0.673-0.672 1.55-0.741 0.673-2.021 1.615-3.57 2.829 1.213 1.01 3.099 1.952 5.656 2.56 2.292 0.538 6.535 1.414 9.093 1.078 2.562-0.472 4.381-1.349 5.997-3.167-3.1 0.675-5.793 0.404-8.621-0.269-2.77-0.94-5.4-2.29-7.89-4.58z" fill="#C03018"/>
      <path d="m230.69 295.29c0.205 0.337 0.676-0.067 1.414-0.942 0.676-1.011 1.619-2.764 2.832-4.984 0.673-0.875 1.48-1.415 2.693-1.886 1.144-0.607 2.964-0.607 4.378-0.81 1.145-0.404 2.357 0.202 3.636-0.809 1.148-1.077 1.886-4.916 3.772-5.791 1.684-1.146 4.446-0.811 6.737-0.811 2.423-0.2 4.58 0.068 6.466-0.471 1.414-0.875 1.549-2.56 2.491-3.771 0.809-1.482 1.349-2.965 3.165-3.639 1.685-0.606 4.514 0 6.94-0.269 2.221-0.338 4.377-1.213 6.464-2.088-3.771 1.616-6.33 2.896-8.486 3.839-1.954 0.809-3.098 0.471-3.976 1.549-1.278 0.942-0.335 3.099-3.164 4.378-3.165 1.213-10.912 1.213-14.146 2.831-3.23 1.278-2.558 4.445-4.984 5.859-2.759 1.144-7.813 1.144-9.969 2.356-2.087 1.011-1.345 3.704-2.152 4.714-0.878 0.877-2.628 0.675-3.169 0.945-0.67 0.06-1.08 0-0.94-0.21z" fill="#A52914"/>
      <path d="m233.99 288.69c0.812 1.214 4.313 0.539 5.054-2.021 0.537-2.693-0.943-9.97-1.614-12.73-0.877-2.761-2.968-4.041-3.439-3.3-0.604 0.604-0.673 3.839-0.471 7.072-0.21 3.03-0.41 9.3 0.47 10.98z" fill="#C03018"/>
      <path d="m236.68 290.92c0.337 0.606 0.136 1.144-0.336 1.885-0.54 0.606-1.618 1.279-2.964 2.021 1.751 0.54 3.567 1.212 5.724 2.021 2.021 0.808 4.446 2.357 6.533 2.56 1.82-0.202 3.505-1.01 5.054-2.964-0.54-0.202-1.954-0.741-4.245-1.617-2.35-1.01-5.51-2.22-9.76-3.9z" fill="#C03018"/>
      <path d="m227.05 297.04c0.202-0.605-3.975-0.741-4.983-0.134-1.214 0.472-1.01 1.751-2.222 3.097-1.686 1.146-6.265 3.031-6.735 3.841-0.541 0.54 2.492 0.875 3.906 0.269 1.078-0.942 2.287-2.964 3.906-4.242 1.66-1.22 5.78-2.43 6.11-2.84z" fill="#A52914"/>
      <path d="m217.82 297.85c0.942 1.279 4.177 0.404 4.985-2.088 0.471-2.896-0.742-9.834-1.55-12.729-0.877-2.764-2.964-4.043-3.436-3.302-0.606 0.606-0.677 3.84-0.472 7.072-0.19 2.97-0.39 9.44 0.48 11.05z" fill="#C03018"/>
      <path d="m220.18 300.21c0.136 0.403 0 0.674-0.672 1.549-0.742 0.673-2.021 1.618-3.569 2.829 1.208 1.01 3.098 1.953 5.656 2.56 2.291 0.54 6.534 1.415 9.092 1.078 2.562-0.472 4.378-1.347 5.996-3.167-3.233 0.675-5.86 0.404-8.689-0.269-2.77-0.94-5.46-2.29-7.82-4.58z" fill="#C03018"/>
      <path d="m250.49 279.94c-0.873-0.741-0.942-3.3-0.942-6.13 0-2.896-0.402-8.081 0.336-10.103 0.406-2.155 1.955-3.031 2.832-1.886 0.738 1.009 1.951 5.859 2.357 8.353 0.2 2.425 0.135 4.646-0.472 6.397-0.89 1.61-3.38 3.7-4.12 3.37z" fill="#A52914"/>
      <path d="m249.88 282.43c1.213-0.067 2.897 1.146 5.324 2.357 2.357 0.943 7.608 2.763 8.485 3.906 0.472 0.943-2.558 3.1-5.186 2.56-2.762-0.739-9.497-4.109-10.846-5.658-1.59-1.62 0.96-3.04 2.24-3.17z" fill="#A52914"/>
      <path d="m266.99 273.81c-0.742-1.55-0.942-7.41-0.606-10.574 0.136-3.302 1.685-8.622 2.563-8.958 0.873-0.539 2.422 3.771 2.828 6.734 0.065 2.964-0.406 8.487-1.147 10.845-1.06 2.15-2.89 3.16-3.63 1.95z" fill="#A52914"/>
      <path d="m263.69 278.99c3.1 1.55 6.197 2.829 9.026 3.57 2.964 0.809 7.141 1.077 8.149 0.809 0.672-0.742-1.479-3.1-3.636-4.243-2.292-1.213-5.727-2.156-10.039-2.83-0.738 1.011-1.278 1.753-1.885 2.224-0.6 0.34-1.14 0.67-1.61 0.47z" fill="#A52914"/>
      <path d="m279.59 269.23c2.156-2.224 3.637-5.322 4.443-9.297 0.743-4.311-0.672-12.326 0.136-14.951 0.676-2.628 3.3-1.82 4.247-0.136 0.807 1.684 1.074 6.331 0.807 10.035-0.54 3.369-1.549 7.072-3.3 10.847 3.23 2.086 5.521 4.039 6.87 6.128 1.279 2.021 1.681 4.849 0.943 5.86-1.079 0.673-4.447 0.202-6.739-1.146-2.5-1.48-4.78-3.84-7.41-7.34z" fill="#A52914"/>
      <path d="m290.43 263.5c1.618 0.472 3.168 0.136 4.381-1.279 1.144-1.414 1.952-3.368 2.964-6.937 0.943-3.774 1.48-12.395 2.693-15.226 1.009-2.963 2.763-3.567 3.436-2.086 0.537 1.348-0.069 7.006 0 9.97-0.069 2.829-1.013 5.05-0.742 6.398 0.069 1.212 0.472 1.347 1.213 0.672-0.877 0.271-1.684 1.146-2.156 1.886-0.606 0.606-1.414 2.156-1.144 3.1 0.202 1.146 1.48 1.346 2.559 3.166 0.877 1.481 3.033 4.378 2.828 6.129-0.401 1.55-3.636 3.772-5.05 3.302-1.615-0.811-3.1-5.727-4.714-7.209-2.02-1.54-3.84-2.08-6.27-1.88z" fill="#A52914"/>
      <path d="m306.13 255.62c0.942 0.337 2.09 0.269 3.165-0.941 1.077-1.279 2.561-2.09 3.64-5.793 0.808-4.108 0.471-14.214 1.549-17.042 0.942-2.627 3.436-1.886 4.108 0.675 0.54 2.356-0.743 9.969-0.943 12.997-0.472 2.628-1.686 2.628-1.279 3.37 0.271 0.539 2.356 1.076 3.637 0.604 1.278-0.472 2.763-1.817 3.906-3.771 0.877-2.289 1.147-5.32 1.886-8.823 0.675-3.838 1.549-11.519 2.357-12.394 0.606-0.674 2.225 5.118 2.225 8.017-0.271 2.76-2.762 6.937-2.562 8.62 0.204 1.55 1.619 1.617 3.977 0.472-2.092 0.674-3.169 1.213-3.977 2.358-0.606 0.875-0.606 1.75-0.267 3.636 0.066 1.686 1.414 4.649 0.943 7.074-0.542 2.221-1.956 4.175-4.247 6.129 0.271-3.099 0.135-5.456-0.942-7.072-1.145-1.819-4.174-2.963-5.187-2.695-1.144 0.202-0.404 1.616-0.672 3.974-0.135 2.224-0.541 7.276-0.942 9.431-0.742 1.886-1.686 2.763-3.1 2.356 0.606-2.828 0.742-5.118 0.136-6.6-0.742-1.617-2.292-2.156-3.64-2.695-1.48-0.739-3.973-1.211-4.579-1.414-0.69-0.42-0.43-0.49 0.79-0.49z" fill="#910000"/>
      <path d="m332.4 239.86c0.873-0.404 1.681-1.752 2.693-4.042 0.741-2.628 2.155-7.206 2.964-10.104 0.671-3.164 1.213-6.733 1.885-7.341 0.606-0.471 1.75 0.943 1.615 4.512-0.336 3.435-1.55 8.555-3.636 15.898 1.279-0.204 2.492-1.012 3.636-2.695 1.078-1.684 2.357-4.041 3.304-7.071 0.603-3.099 1.074-9.902 1.681-11.316 0.676-1.617 1.82 0.605 2.356 2.222 0.406 1.685 0.473 4.446 0.206 7.208-0.473 2.49-1.414 5.321-2.829 8.217 0.673 2.356 0.673 4.85 0.267 7.206-0.537 2.358-2.693 6.534-3.099 6.805-0.673-0.067 0.877-4.446 0.472-6.131-0.673-1.75-1.345-3.637-2.558-3.838-1.214-0.606-3.166-0.136-3.772 1.414-0.808 1.616 0.606 4.781-0.135 7.409-0.877 2.289-2.356 4.242-4.715 6.13 1.752-2.292 2.358-4.445 2.358-6.737-0.337-2.492-2.563-5.456-3.033-6.802-0.55-1.3-0.35-1.7 0.33-0.96z" fill="#910000"/>
    </g>
  </g>
  <metadata>
    <rdf:RDF>
      <cc:Work>
        <dc:format>image/svg+xml</dc:format>
        <dc:type rdf:resource="http://purl.org/dc/dcmitype/StillImage"/>
        <cc:license rdf:resource="http://creativecommons.org/licenses/publicdomain/"/>
        <dc:publisher>
          <cc:Agent rdf:about="http://openclipart.org/">
            <dc:title>Openclipart</dc:title>
          </cc:Agent>
        </dc:publisher>
        <dc:title>Baseball</dc:title>
        <dc:date>2007-11-13T23:20:55</dc:date>
        <dc:description>ball, baseball, clip art, clipart, colouring book, sport, </dc:description>
        <dc:source>http://openclipart.org/detail/8296/baseball-by-gerald_g-8296</dc:source>
        <dc:creator>
          <cc:Agent>
            <dc:title>Gerald_G</dc:title>
          </cc:Agent>
        </dc:creator>
        <dc:subject>
          <rdf:Bag>
            <rdf:li>ball</rdf:li>
            <rdf:li>baseball</rdf:li>
            <rdf:li>clip art</rdf:li>
            <rdf:li>clipart</rdf:li>
            <rdf:li>colouring book</rdf:li>
            <rdf:li>sport</rdf:li>
          </rdf:Bag>
        </dc:subject>
      </cc:Work>
      <cc:License rdf:about="http://creativecommons.org/licenses/publicdomain/">
        <cc:permits rdf:resource="http://creativecommons.org/ns#Reproduction"/>
        <cc:permits rdf:resource="http://creativecommons.org/ns#Distribution"/>
        <cc:permits rdf:resource="http://creativecommons.org/ns#DerivativeWorks"/>
      </cc:License>
    </rdf:RDF>
  </metadata>
</svg>
